<svg width="477" height="360" viewBox="0 0 477 360" fill="none" xmlns="http://www.w3.org/2000/svg">
  <g filter="url(#filter0_d_240_136)">
    <path d="M472.355 351.389H4V0H472.355V351.389Z" fill="white" />
    <path d="M117.492 73.3374C127.788 73.3374 136.135 64.9907 136.135 54.6945C136.135 44.3982 127.788 36.0515 117.492 36.0515C107.195 36.0515 98.8486 44.3982 98.8486 54.6945C98.8486 64.9907 107.195 73.3374 117.492 73.3374Z" fill="#E6E6E6" />
    <path d="M160.548 42.2659C159.725 42.2673 158.936 42.5954 158.354 43.1779C157.773 43.7604 157.446 44.5499 157.446 45.373C157.446 46.1961 157.773 46.9856 158.354 47.5681C158.936 48.1507 159.725 48.4787 160.548 48.4802H387.407C388.23 48.4787 389.019 48.1507 389.6 47.5681C390.182 46.9856 390.508 46.1961 390.508 45.373C390.508 44.5499 390.182 43.7604 389.6 43.1779C389.019 42.5954 388.23 42.2673 387.407 42.2659H160.548Z" fill="#E6E6E6" />
    <path d="M160.547 60.9087C159.723 60.907 158.932 61.2326 158.348 61.8141C157.764 62.3956 157.435 63.1852 157.434 64.0093C157.432 64.8334 157.758 65.6244 158.339 66.2083C158.921 66.7922 159.71 67.1213 160.534 67.123H303.957C304.365 67.1237 304.77 67.0439 305.147 66.8881C305.525 66.7323 305.868 66.5035 306.157 66.2149C306.446 65.9263 306.676 65.5835 306.832 65.2062C306.989 64.8289 307.069 64.4244 307.069 64.0158C307.069 63.6073 306.989 63.2028 306.832 62.8255C306.676 62.4482 306.446 62.1054 306.157 61.8168C305.868 61.5282 305.525 61.2994 305.147 61.1436C304.77 60.9878 304.365 60.908 303.957 60.9087H160.547Z" fill="#E6E6E6" />
    <path d="M30.1777 107.159V316.159H446.178V107.159H30.1777ZM444.178 158.909H342.678V109.159H444.178V158.909ZM239.178 158.909V109.159H340.678V158.909H239.178ZM340.678 160.909V210.659H239.178V160.909H340.678ZM237.178 158.909H135.678V109.159H237.178V158.909ZM237.178 160.909V210.659H135.678V160.909H237.178ZM133.678 210.659H32.1777V160.909H133.678V210.659ZM133.678 212.659V262.409H32.1777V212.659H133.678ZM135.678 212.659H237.178V262.409H135.678V212.659ZM237.178 264.409V314.159H135.678V264.409H237.178ZM239.178 264.409H340.678V314.159H239.178V264.409ZM239.178 262.409V212.659H340.678V262.409H239.178ZM342.678 212.659H444.178V262.409H342.678V212.659ZM342.678 210.659V160.909H444.178V210.659H342.678ZM133.678 109.159V158.909H32.1777V109.159H133.678ZM32.1777 264.409H133.678V314.159H32.1777V264.409ZM342.678 314.159V264.409H444.178V314.159H342.678Z" fill="#E4E4E4" />
    <path d="M200.95 163.386L159.557 162.449C155.417 146.41 157.281 131.139 160.585 117.067L201.977 118.004C197.79 132.799 197.437 148.417 200.95 163.386V163.386Z" fill="#2563EB" />
    <path d="M167.676 127.097L167.698 125.522L189.143 126.288L189.12 127.863L167.676 127.097Z" fill="white" />
    <path d="M167.586 133.397L167.608 131.822L189.052 132.589L189.03 134.164L167.586 133.397Z" fill="white" />
    <path d="M167.495 139.697L167.518 138.122L188.962 138.889L188.94 140.464L167.495 139.697Z" fill="white" />
    <path d="M167.404 145.997L167.426 144.422L188.871 145.189L188.848 146.764L167.404 145.997Z" fill="white" />
    <path d="M167.314 152.297L167.336 150.722L188.781 151.489L188.758 153.064L167.314 152.297Z" fill="white" />
    <path d="M110.95 279.386L69.557 278.449C65.4166 262.41 67.2807 247.139 70.5847 233.067L111.977 234.004C107.79 248.799 107.437 264.417 110.95 279.386Z" fill="#F0F0F0" />
    <path d="M77.6758 243.097L77.6978 241.522L99.1428 242.288L99.1198 243.863L77.6758 243.097Z" fill="white" />
    <path d="M77.5859 249.397L77.6079 247.822L99.0519 248.589L99.0299 250.164L77.5859 249.397Z" fill="white" />
    <path d="M77.4951 255.697L77.5181 254.122L98.9621 254.889L98.9401 256.464L77.4951 255.697Z" fill="white" />
    <path d="M77.4043 261.997L77.4263 260.422L98.8713 261.189L98.8483 262.764L77.4043 261.997Z" fill="white" />
    <path d="M77.3145 268.297L77.3364 266.722L98.7814 267.489L98.7585 269.064L77.3145 268.297Z" fill="white" />
    <path d="M326.95 226.386L285.557 225.449C281.417 209.41 283.281 194.139 286.585 180.067L327.977 181.004C323.79 195.799 323.437 211.417 326.95 226.386V226.386Z" fill="#F0F0F0" />
    <path d="M293.676 190.097L293.698 188.522L315.143 189.288L315.12 190.863L293.676 190.097Z" fill="white" />
    <path d="M293.586 196.397L293.608 194.822L315.052 195.589L315.03 197.164L293.586 196.397Z" fill="white" />
    <path d="M293.495 202.697L293.518 201.122L314.962 201.889L314.94 203.464L293.495 202.697Z" fill="white" />
    <path d="M293.404 208.997L293.426 207.422L314.871 208.189L314.848 209.764L293.404 208.997Z" fill="white" />
    <path d="M293.314 215.297L293.336 213.722L314.781 214.489L314.758 216.064L293.314 215.297Z" fill="white" />
    <path d="M308.95 216.386L267.557 215.449C263.417 199.41 265.281 184.139 268.585 170.067L309.977 171.004C305.79 185.799 305.437 201.417 308.95 216.386V216.386Z" fill="#2563EB" />
    <path d="M275.676 180.097L275.698 178.522L297.143 179.288L297.12 180.863L275.676 180.097Z" fill="white" />
    <path d="M275.586 186.397L275.608 184.822L297.052 185.589L297.03 187.164L275.586 186.397Z" fill="white" />
    <path d="M275.495 192.697L275.518 191.122L296.962 191.889L296.94 193.464L275.495 192.697Z" fill="white" />
    <path d="M275.404 198.997L275.426 197.422L296.871 198.189L296.848 199.764L275.404 198.997Z" fill="white" />
    <path d="M275.314 205.297L275.336 203.722L296.781 204.489L296.758 206.064L275.314 205.297Z" fill="white" />
    <path d="M461.616 307.736L420.223 306.799C416.083 290.76 417.947 275.489 421.251 261.417L462.643 262.354C458.456 277.149 458.103 292.766 461.616 307.736Z" fill="#2563EB" />
    <path d="M428.342 271.446L428.365 269.871L449.809 270.638L449.786 272.213L428.342 271.446Z" fill="white" />
    <path d="M428.252 277.746L428.274 276.171L449.719 276.938L449.696 278.513L428.252 277.746Z" fill="white" />
    <path d="M428.161 284.047L428.184 282.472L449.628 283.238L449.606 284.813L428.161 284.047Z" fill="white" />
    <path d="M428.07 290.347L428.093 288.772L449.537 289.538L449.514 291.113L428.07 290.347Z" fill="white" />
    <path d="M427.98 296.647L428.002 295.072L449.447 295.839L449.424 297.414L427.98 296.647Z" fill="white" />
    <path d="M416.95 171.386L375.557 170.449C371.417 154.41 373.281 139.139 376.585 125.067L417.977 126.004C413.79 140.799 413.437 156.417 416.95 171.386V171.386Z" fill="#F0F0F0" />
    <path d="M383.676 135.097L383.698 133.522L405.143 134.288L405.12 135.863L383.676 135.097Z" fill="white" />
    <path d="M383.586 141.397L383.608 139.822L405.052 140.589L405.03 142.164L383.586 141.397Z" fill="white" />
    <path d="M383.495 147.697L383.518 146.122L404.962 146.889L404.94 148.464L383.495 147.697Z" fill="white" />
    <path d="M383.404 153.997L383.426 152.422L404.871 153.189L404.848 154.764L383.404 153.997Z" fill="white" />
    <path d="M383.314 160.297L383.336 158.722L404.781 159.489L404.758 161.064L383.314 160.297Z" fill="white" />
  </g>
  <defs>
    <filter id="filter0_d_240_136" x="0" y="0" width="476.355" height="359.389" filterUnits="userSpaceOnUse" color-interpolation-filters="sRGB">
      <feFlood flood-opacity="0" result="BackgroundImageFix" />
      <feColorMatrix in="SourceAlpha" type="matrix" values="0 0 0 0 0 0 0 0 0 0 0 0 0 0 0 0 0 0 127 0" result="hardAlpha" />
      <feOffset dy="4" />
      <feGaussianBlur stdDeviation="2" />
      <feComposite in2="hardAlpha" operator="out" />
      <feColorMatrix type="matrix" values="0 0 0 0 0 0 0 0 0 0 0 0 0 0 0 0 0 0 0.25 0" />
      <feBlend mode="normal" in2="BackgroundImageFix" result="effect1_dropShadow_240_136" />
      <feBlend mode="normal" in="SourceGraphic" in2="effect1_dropShadow_240_136" result="shape" />
    </filter>
  </defs>
</svg>
