<svg width="714" height="483" viewBox="0 0 714 483" fill="none" xmlns="http://www.w3.org/2000/svg">
  <g clip-path="url(#clip0_244_572)">
    <g filter="url(#filter0_d_244_572)">
      <path d="M684.57 475.919H474.614C466.975 475.91 459.652 472.872 454.251 467.471C448.85 462.069 445.811 454.746 445.803 447.108V115.926C445.811 108.287 448.85 100.964 454.251 95.5625C459.652 90.1612 466.975 87.123 474.614 87.1144H684.57C692.208 87.123 699.532 90.1612 704.933 95.5625C710.334 100.964 713.373 108.287 713.381 115.926V447.108C713.373 454.746 710.334 462.069 704.933 467.471C699.532 472.872 692.208 475.91 684.57 475.919V475.919Z" fill="#E6E6E6" />
      <path d="M688.053 104.307H474.219C471.828 104.31 469.536 105.261 467.845 106.952C466.154 108.642 465.203 110.935 465.2 113.326V448.826C465.204 451.217 466.155 453.509 467.846 455.199C469.537 456.89 471.829 457.841 474.219 457.845H688.053C690.444 457.842 692.736 456.891 694.427 455.2C696.118 453.509 697.069 451.217 697.072 448.826V113.326C697.069 110.935 696.118 108.642 694.427 106.952C692.736 105.261 690.444 104.31 688.053 104.307V104.307Z" fill="white" />
      <path d="M479.747 87.1145C479.748 86.5301 479.98 85.9699 480.393 85.5567C480.807 85.1435 481.367 84.9111 481.951 84.9104H496.939C497.524 84.9104 498.084 85.1426 498.498 85.556C498.911 85.9693 499.143 86.5299 499.143 87.1145C499.143 87.6991 498.911 88.2597 498.498 88.6731C498.084 89.0864 497.524 89.3186 496.939 89.3186H481.951C481.367 89.3179 480.807 89.0855 480.393 88.6723C479.98 88.2591 479.748 87.6988 479.747 87.1145Z" fill="#E6E6E6" />
      <path d="M504.432 87.1145C504.432 86.5301 504.665 85.9699 505.078 85.5567C505.491 85.1435 506.051 84.9111 506.636 84.9104H521.624C522.208 84.9104 522.769 85.1426 523.182 85.556C523.596 85.9693 523.828 86.5299 523.828 87.1145C523.828 87.6991 523.596 88.2597 523.182 88.6731C522.769 89.0864 522.208 89.3186 521.624 89.3186H506.636C506.051 89.3179 505.491 89.0855 505.078 88.6723C504.665 88.2591 504.432 87.6989 504.432 87.1145Z" fill="#E6E6E6" />
      <path d="M652.549 87.1145C652.55 86.5301 652.782 85.9699 653.195 85.5567C653.608 85.1435 654.169 84.9111 654.753 84.9104H669.741C670.325 84.9104 670.886 85.1426 671.299 85.556C671.713 85.9693 671.945 86.5299 671.945 87.1145C671.945 87.6991 671.713 88.2597 671.299 88.6731C670.886 89.0864 670.325 89.3186 669.741 89.3186H654.753C654.169 89.3179 653.608 89.0855 653.195 88.6723C652.782 88.2591 652.55 87.6989 652.549 87.1145V87.1145Z" fill="#E6E6E6" />
      <path d="M610.768 450.933C610.768 453.251 610.724 455.561 610.618 457.845H474.219C471.829 457.841 469.537 456.89 467.846 455.199C466.155 453.508 465.204 451.216 465.2 448.825V279.956C505.819 286.518 542.775 307.328 569.448 338.657C596.121 369.985 610.769 409.787 610.768 450.933Z" fill="#F2F2F2" />
      <path d="M606.136 190.523H555.267C552.952 190.523 551.075 192.4 551.075 194.715V199.945C551.075 202.26 552.952 204.137 555.267 204.137H606.136C608.451 204.137 610.328 202.26 610.328 199.945V194.715C610.328 192.4 608.451 190.523 606.136 190.523Z" fill="#2563EB" />
      <path d="M638.466 217.75H522.935C520.62 217.75 518.743 219.626 518.743 221.941V227.171C518.743 229.486 520.62 231.363 522.935 231.363H638.466C640.781 231.363 642.658 229.486 642.658 227.171V221.941C642.658 219.626 640.781 217.75 638.466 217.75Z" fill="#E6E6E6" />
      <path d="M638.466 244.976H522.935C520.62 244.976 518.743 246.852 518.743 249.167V254.397C518.743 256.712 520.62 258.589 522.935 258.589H638.466C640.781 258.589 642.658 256.712 642.658 254.397V249.167C642.658 246.852 640.781 244.976 638.466 244.976Z" fill="#E6E6E6" />
      <path d="M618.682 434.916C618.019 434.947 617.364 434.773 616.803 434.418C616.243 434.063 615.805 433.545 615.55 432.933C615.294 432.321 615.232 431.646 615.373 430.998C615.514 430.35 615.851 429.761 616.338 429.311L616.56 428.43C616.53 428.359 616.501 428.289 616.472 428.218C615.804 426.642 614.686 425.298 613.257 424.355C611.829 423.413 610.153 422.913 608.442 422.92C606.73 422.926 605.058 423.438 603.637 424.391C602.215 425.345 601.107 426.697 600.451 428.278C597.831 434.588 594.495 440.91 593.674 447.582C593.312 450.531 593.465 453.521 594.125 456.418C587.971 442.994 584.775 428.404 584.755 413.636C584.754 409.93 584.959 406.227 585.372 402.545C585.712 399.525 586.185 396.528 586.789 393.552C590.088 377.404 597.169 362.268 607.453 349.389C612.43 346.673 616.456 342.497 618.986 337.423C619.903 335.599 620.551 333.652 620.91 331.642C620.349 331.716 619.778 331.762 619.217 331.799C619.042 331.808 618.858 331.817 618.683 331.826L618.617 331.829C618 331.857 617.388 331.706 616.855 331.394C616.321 331.082 615.89 330.622 615.612 330.071C615.334 329.519 615.221 328.899 615.287 328.285C615.354 327.671 615.596 327.089 615.985 326.609C616.228 326.311 616.47 326.013 616.713 325.715C617.081 325.254 617.459 324.803 617.827 324.343C617.869 324.299 617.909 324.253 617.946 324.205C618.37 323.68 618.793 323.165 619.217 322.64C618.444 321.441 617.404 320.436 616.179 319.704C611.936 317.219 606.082 318.94 603.017 322.778C599.942 326.617 599.362 332.001 600.43 336.797C601.48 340.877 603.217 344.749 605.566 348.247C605.336 348.542 605.097 348.827 604.867 349.122C600.66 354.531 596.994 360.339 593.921 366.463C594.668 359.602 593.776 352.662 591.318 346.213C588.826 340.203 584.157 335.141 580.045 329.945C575.105 323.705 564.977 326.428 564.106 334.34C564.098 334.416 564.09 334.493 564.082 334.569C564.692 334.914 565.29 335.28 565.875 335.666C566.61 336.157 567.18 336.859 567.509 337.679C567.838 338.499 567.912 339.4 567.721 340.263C567.53 341.126 567.083 341.911 566.438 342.515C565.793 343.119 564.98 343.515 564.107 343.649L564.017 343.663C564.235 345.865 564.619 348.046 565.168 350.189C566.757 356.172 569.564 361.762 573.415 366.609C577.265 371.455 582.075 375.454 587.544 378.355C587.903 378.539 588.253 378.723 588.612 378.898C585.524 387.649 583.587 396.764 582.85 406.014C582.432 411.472 582.457 416.954 582.923 422.408L582.896 422.214C581.717 416.15 578.482 410.679 573.737 406.723C566.689 400.934 556.732 398.802 549.128 394.148C548.32 393.629 547.381 393.352 546.42 393.35C545.46 393.348 544.519 393.62 543.708 394.135C542.898 394.65 542.251 395.386 541.845 396.256C541.439 397.126 541.291 398.094 541.417 399.046C541.427 399.114 541.437 399.182 541.448 399.249C542.581 399.711 543.685 400.243 544.752 400.842C545.363 401.186 545.961 401.552 546.546 401.939C547.281 402.43 547.85 403.131 548.18 403.952C548.509 404.772 548.583 405.672 548.392 406.535C548.2 407.398 547.753 408.183 547.108 408.788C546.463 409.392 545.651 409.787 544.777 409.922L544.688 409.936C544.623 409.945 544.568 409.954 544.504 409.963C546.44 414.587 549.159 418.844 552.539 422.546C556.715 427.027 561.763 430.608 567.372 433.069C572.982 435.53 579.034 436.82 585.16 436.859H585.169C586.832 444.084 589.241 451.118 592.358 457.845H618.038C618.13 457.56 618.213 457.265 618.296 456.98C615.919 457.129 613.533 456.987 611.19 456.557C613.095 454.219 615.001 451.862 616.906 449.524C616.949 449.481 616.989 449.434 617.026 449.386C617.992 448.19 618.968 447.002 619.934 445.806L619.935 445.804C619.986 442.136 619.566 438.477 618.683 434.917L618.682 434.916ZM589.274 377.066L589.288 377.048L589.274 377.085V377.066ZM583.586 428.345L583.365 427.848C583.374 427.489 583.374 427.13 583.365 426.762C583.365 426.66 583.347 426.559 583.347 426.458C583.429 427.093 583.503 427.728 583.595 428.363L583.586 428.345Z" fill="#CCCCCC" />
      <path d="M677.364 133.927H484.908C484.491 133.918 484.095 133.746 483.804 133.448C483.513 133.15 483.35 132.751 483.35 132.334C483.35 131.918 483.513 131.518 483.804 131.22C484.095 130.922 484.491 130.751 484.908 130.741H677.364C677.78 130.751 678.177 130.922 678.468 131.22C678.759 131.518 678.922 131.918 678.922 132.334C678.922 132.751 678.759 133.15 678.468 133.448C678.177 133.746 677.78 133.918 677.364 133.927V133.927Z" fill="#CACACA" />
      <path d="M495.175 126.135C497.761 126.135 499.857 123.992 499.857 121.349C499.857 118.706 497.761 116.564 495.175 116.564C492.59 116.564 490.494 118.706 490.494 121.349C490.494 123.992 492.59 126.135 495.175 126.135Z" fill="#3F3D56" />
      <path d="M511.346 126.135C513.932 126.135 516.028 123.992 516.028 121.349C516.028 118.706 513.932 116.564 511.346 116.564C508.761 116.564 506.665 118.706 506.665 121.349C506.665 123.992 508.761 126.135 511.346 126.135Z" fill="#3F3D56" />
      <path d="M527.519 126.135C530.105 126.135 532.201 123.992 532.201 121.349C532.201 118.706 530.105 116.564 527.519 116.564C524.934 116.564 522.838 118.706 522.838 121.349C522.838 123.992 524.934 126.135 527.519 126.135Z" fill="#3F3D56" />
      <path d="M669.841 118.413H659.365C659.157 118.417 658.959 118.502 658.814 118.651C658.668 118.799 658.587 118.998 658.587 119.206C658.587 119.414 658.668 119.613 658.814 119.761C658.959 119.91 659.157 119.995 659.365 119.999H669.841C670.049 119.995 670.246 119.91 670.392 119.761C670.537 119.613 670.619 119.414 670.619 119.206C670.619 118.998 670.537 118.799 670.392 118.651C670.246 118.502 670.049 118.417 669.841 118.413V118.413Z" fill="#3F3D56" />
      <path d="M669.841 121.391H659.365C659.157 121.395 658.959 121.48 658.814 121.628C658.668 121.777 658.587 121.976 658.587 122.184C658.587 122.391 658.668 122.591 658.814 122.739C658.959 122.888 659.157 122.973 659.365 122.977H669.841C670.049 122.973 670.246 122.888 670.392 122.739C670.537 122.591 670.619 122.391 670.619 122.184C670.619 121.976 670.537 121.777 670.392 121.628C670.246 121.48 670.049 121.395 669.841 121.391V121.391Z" fill="#3F3D56" />
      <path d="M669.841 124.364H659.365C659.157 124.368 658.959 124.453 658.814 124.602C658.668 124.75 658.587 124.949 658.587 125.157C658.587 125.365 658.668 125.564 658.814 125.712C658.959 125.861 659.157 125.946 659.365 125.95H669.841C670.049 125.946 670.246 125.861 670.392 125.712C670.537 125.564 670.619 125.365 670.619 125.157C670.619 124.949 670.537 124.75 670.392 124.602C670.246 124.453 670.049 124.368 669.841 124.364Z" fill="#3F3D56" />
      <path d="M357.581 280.082H246C244.422 280.084 242.909 280.713 241.794 281.831C240.679 282.949 240.054 284.463 240.056 286.042V462.307H363.541V286.042C363.542 285.259 363.388 284.484 363.088 283.76C362.789 283.037 362.35 282.38 361.796 281.826C361.243 281.273 360.586 280.834 359.862 280.535C359.139 280.235 358.364 280.081 357.581 280.082ZM302.166 380.234C298.677 380.217 295.335 378.824 292.867 376.357C290.4 373.889 289.006 370.547 288.99 367.058V346.727C288.993 343.235 290.383 339.886 292.853 337.418C295.324 334.949 298.674 333.563 302.166 333.563C305.659 333.563 309.008 334.949 311.479 337.418C313.949 339.886 315.339 343.235 315.342 346.727V367.058C315.326 370.547 313.932 373.889 311.465 376.357C308.997 378.824 305.656 380.217 302.166 380.234V380.234Z" fill="white" />
      <path d="M239.674 456.669V473.675C239.676 474.557 240.026 475.401 240.65 476.024C241.273 476.647 242.117 476.998 242.999 477H360.601C361.481 476.996 362.324 476.644 362.947 476.021C363.569 475.399 363.921 474.556 363.925 473.675V456.669L239.674 456.669Z" fill="#CCCCCC" />
      <path d="M542.351 5H65.3854C61.2876 5.00652 57.3594 6.63728 54.4617 9.53492C51.5641 12.4326 49.9333 16.3607 49.9268 20.4586V342.317C49.9307 346.416 51.5606 350.346 54.4589 353.244C57.3571 356.142 61.2868 357.772 65.3854 357.776H542.351C546.45 357.772 550.38 356.142 553.278 353.244C556.176 350.346 557.806 346.416 557.81 342.317V20.4586C557.804 16.3607 556.173 12.4326 553.275 9.53492C550.377 6.63728 546.449 5.00652 542.351 5Z" fill="#E6E6E6" />
      <path d="M538.368 16.1654H69.3678C67.1737 16.1702 65.0711 17.0451 63.5212 18.5982C61.9713 20.1513 61.1008 22.2557 61.1006 24.4499V338.331C61.1044 340.522 61.9766 342.623 63.5262 344.173C65.0758 345.722 67.1764 346.594 69.3678 346.598H538.368C540.559 346.594 542.66 345.722 544.209 344.173C545.759 342.623 546.631 340.522 546.635 338.331V24.4499C546.635 22.2557 545.764 20.1513 544.214 18.5982C542.664 17.0451 540.562 16.1702 538.368 16.1654Z" fill="white" />
      <path d="M546.637 24.4499V338.331C546.633 340.522 545.761 342.623 544.212 344.173C542.662 345.722 540.561 346.594 538.37 346.598H372.99C354.695 329.631 339.686 309.436 328.715 287.026C327.993 285.582 327.305 284.121 326.652 282.643C316.656 260.952 310.604 237.654 308.777 213.841C308.657 212.38 308.554 210.919 308.485 209.441C308.262 205.659 308.158 201.826 308.158 197.976C308.126 172.371 312.961 146.992 322.407 123.193C322.974 121.715 323.576 120.254 324.194 118.793C343.205 74.127 377.556 37.728 421.047 16.1654H538.37C540.564 16.1702 542.667 17.0451 544.217 18.5982C545.766 20.1513 546.637 22.2557 546.637 24.4499Z" fill="#2563EB" />
      <path d="M514.793 59.4113H75.9515C75.4951 59.4016 75.0607 59.2134 74.7413 58.8872C74.422 58.561 74.2432 58.1227 74.2432 57.6662C74.2432 57.2097 74.422 56.7713 74.7413 56.4451C75.0607 56.1189 75.4951 55.9307 75.9515 55.921H514.793C515.249 55.9307 515.683 56.1189 516.003 56.4451C516.322 56.7713 516.501 57.2097 516.501 57.6662C516.501 58.1227 516.322 58.561 516.003 58.8872C515.683 59.2134 515.249 59.4016 514.793 59.4113V59.4113Z" fill="#CACACA" />
      <path d="M105.825 47.0108C111.473 47.0108 116.052 42.3298 116.052 36.5555C116.052 30.7812 111.473 26.1002 105.825 26.1002C100.177 26.1002 95.5977 30.7812 95.5977 36.5555C95.5977 42.3298 100.177 47.0108 105.825 47.0108Z" fill="#3F3D56" />
      <path d="M141.156 47.0108C146.805 47.0108 151.384 42.3298 151.384 36.5555C151.384 30.7812 146.805 26.1002 141.156 26.1002C135.508 26.1002 130.929 30.7812 130.929 36.5555C130.929 42.3298 135.508 47.0108 141.156 47.0108Z" fill="#3F3D56" />
      <path d="M176.487 47.0108C182.136 47.0108 186.715 42.3298 186.715 36.5555C186.715 30.7812 182.136 26.1002 176.487 26.1002C170.839 26.1002 166.26 30.7812 166.26 36.5555C166.26 42.3298 170.839 47.0108 176.487 47.0108Z" fill="#3F3D56" />
      <path d="M493.521 28.6914H468.424C467.926 28.7012 467.452 28.9058 467.104 29.2611C466.756 29.6164 466.561 30.0941 466.561 30.5917C466.561 31.0893 466.756 31.567 467.104 31.9224C467.452 32.2777 467.926 32.4822 468.424 32.492H493.521C494.018 32.4822 494.492 32.2777 494.841 31.9224C495.189 31.567 495.384 31.0893 495.384 30.5917C495.384 30.0941 495.189 29.6164 494.841 29.2611C494.492 28.9058 494.018 28.7012 493.521 28.6914V28.6914Z" fill="#3F3D56" />
      <path d="M493.521 35.8247H468.424C467.926 35.8345 467.452 36.0391 467.104 36.3944C466.756 36.7497 466.561 37.2274 466.561 37.725C466.561 38.2226 466.756 38.7003 467.104 39.0557C467.452 39.411 467.926 39.6155 468.424 39.6253H493.521C494.018 39.6155 494.492 39.411 494.841 39.0557C495.189 38.7003 495.384 38.2226 495.384 37.725C495.384 37.2274 495.189 36.7497 494.841 36.3944C494.492 36.0391 494.018 35.8345 493.521 35.8247V35.8247Z" fill="#3F3D56" />
      <path d="M493.521 42.9486H468.424C467.926 42.9585 467.452 43.163 467.104 43.5183C466.756 43.8736 466.561 44.3513 466.561 44.8489C466.561 45.3465 466.756 45.8242 467.104 46.1796C467.452 46.5349 467.926 46.7394 468.424 46.7492H493.521C494.018 46.7394 494.492 46.5349 494.841 46.1796C495.189 45.8242 495.384 45.3465 495.384 44.8489C495.384 44.3513 495.189 43.8736 494.841 43.5183C494.492 43.163 494.018 42.9585 493.521 42.9486V42.9486Z" fill="#3F3D56" />
      <path d="M210.32 161.365H148.952C146.637 161.365 144.761 163.241 144.761 165.556V172.089C144.761 174.404 146.637 176.28 148.952 176.28H210.32C212.635 176.28 214.512 174.404 214.512 172.089V165.556C214.512 163.241 212.635 161.365 210.32 161.365Z" fill="#2563EB" />
      <path d="M245.743 191.195H113.527C111.212 191.195 109.336 193.072 109.336 195.387V201.919C109.336 204.234 111.212 206.111 113.527 206.111H245.743C248.058 206.111 249.935 204.234 249.935 201.919V195.387C249.935 193.072 248.058 191.195 245.743 191.195Z" fill="#E6E6E6" />
      <path d="M245.743 221.026H113.527C111.212 221.026 109.336 222.903 109.336 225.218V231.75C109.336 234.065 111.212 235.942 113.527 235.942H245.743C248.058 235.942 249.935 234.065 249.935 231.75V225.218C249.935 222.903 248.058 221.026 245.743 221.026Z" fill="#E6E6E6" />
      <path d="M120.811 328.603C120.821 334.747 119.726 340.842 117.579 346.598H69.3678C67.1764 346.595 65.0758 345.722 63.5262 344.173C61.9766 342.623 61.1044 340.523 61.1006 338.331V277.693C63.7943 277.257 66.5188 277.039 69.2475 277.04C76.019 277.039 82.7242 278.373 88.9803 280.964C95.2364 283.555 100.921 287.353 105.709 292.141C110.497 296.93 114.295 302.614 116.886 308.87C119.478 315.126 120.811 321.831 120.811 328.603V328.603Z" fill="#2563EB" />
      <path opacity="0.2" d="M547.065 123.193V118.793H473.313V67.7974H468.93V118.793H384.401V67.7974H380.018V118.793H324.193C323.574 120.254 322.973 121.715 322.405 123.193H380.018V209.441H308.483C308.552 210.919 308.655 212.38 308.776 213.841H380.018V282.643H326.651C327.304 284.121 327.991 285.582 328.713 287.026H380.018V344.862H384.401V287.026H468.93V344.862H473.313V287.026H547.065V282.643H473.313V282.643C473.313 273.608 475.093 264.661 478.55 256.314C482.008 247.966 487.076 240.381 493.465 233.993C499.854 227.604 507.438 222.536 515.786 219.078C524.133 215.62 533.08 213.841 542.115 213.841H547.065V209.441H473.313V123.193H547.065ZM468.93 282.643H384.401V213.841H468.93V282.643ZM468.93 209.441H384.401V207.722C384.401 185.304 393.307 163.803 409.159 147.951C425.011 132.099 446.512 123.193 468.93 123.193H468.93V209.441Z" fill="black" />
      <path d="M487.684 314.034C486.743 314.077 485.812 313.83 485.016 313.327C484.221 312.823 483.599 312.087 483.236 311.218C482.872 310.349 482.785 309.39 482.985 308.469C483.186 307.549 483.664 306.713 484.355 306.073C484.471 305.613 484.554 305.283 484.67 304.822C484.629 304.722 484.587 304.622 484.545 304.522C480.317 294.439 465.986 294.509 461.793 304.606C458.072 313.569 453.334 322.546 452.168 332.023C451.654 336.211 451.871 340.457 452.808 344.572C444.068 325.507 439.53 304.785 439.5 283.812C439.499 278.549 439.791 273.29 440.376 268.059C440.86 263.772 441.531 259.514 442.39 255.288C447.074 232.354 457.132 210.858 471.737 192.566C478.806 188.709 484.522 182.778 488.117 175.572C489.419 172.982 490.339 170.217 490.849 167.363C490.051 167.467 489.241 167.533 488.444 167.585C488.195 167.598 487.934 167.611 487.685 167.624L487.591 167.628C486.715 167.668 485.846 167.453 485.089 167.01C484.332 166.567 483.719 165.914 483.324 165.131C482.929 164.347 482.769 163.467 482.863 162.594C482.957 161.722 483.301 160.896 483.854 160.215C484.198 159.791 484.543 159.367 484.888 158.944C485.411 158.291 485.947 157.65 486.469 156.996C486.53 156.934 486.587 156.869 486.639 156.8C487.241 156.055 487.842 155.323 488.443 154.578C487.346 152.874 485.869 151.447 484.13 150.408C478.103 146.878 469.789 149.323 465.436 154.774C461.07 160.225 460.246 167.873 461.763 174.683C463.057 180.514 465.88 185.86 469.057 190.945C468.73 191.364 468.39 191.769 468.064 192.187C462.089 199.869 456.882 208.118 452.518 216.816C453.579 207.072 452.312 197.215 448.821 188.056C445.283 179.521 438.651 172.332 432.811 164.953C425.796 156.09 411.411 159.958 410.175 171.194C410.163 171.302 410.151 171.411 410.14 171.52C411.007 172.009 411.856 172.529 412.687 173.078C413.731 173.775 414.54 174.772 415.008 175.937C415.475 177.101 415.58 178.38 415.309 179.606C415.037 180.831 414.402 181.946 413.486 182.805C412.57 183.663 411.416 184.224 410.175 184.416L410.048 184.435C410.357 187.562 410.904 190.66 411.682 193.704C413.939 202.2 417.926 210.139 423.395 217.023C428.863 223.906 435.695 229.586 443.461 233.705C443.971 233.967 444.468 234.228 444.978 234.476C440.592 246.905 437.841 259.85 436.794 272.988C436.202 280.738 436.237 288.524 436.899 296.27L436.86 295.995C435.186 287.383 430.592 279.612 423.853 273.994C413.843 265.772 399.701 262.744 388.903 256.134C383.705 252.953 377.044 257.064 377.951 263.091C377.965 263.187 377.98 263.283 377.995 263.38C379.605 264.035 381.172 264.79 382.688 265.641C383.555 266.13 384.404 266.65 385.235 267.199C386.279 267.897 387.088 268.893 387.556 270.058C388.023 271.223 388.128 272.502 387.857 273.727C387.585 274.953 386.95 276.068 386.034 276.926C385.118 277.784 383.964 278.346 382.723 278.537L382.596 278.556C382.505 278.57 382.426 278.583 382.335 278.596C385.085 285.163 388.946 291.208 393.747 296.466C399.678 302.83 406.847 307.916 414.813 311.411C422.78 314.907 431.376 316.738 440.076 316.793H440.089C442.45 327.055 445.872 337.044 450.298 346.598H486.77C486.901 346.193 487.019 345.775 487.136 345.369C483.76 345.582 480.371 345.38 477.044 344.768C479.75 341.448 482.456 338.101 485.162 334.781C485.223 334.719 485.279 334.653 485.332 334.585C486.705 332.885 488.09 331.199 489.463 329.5L489.464 329.498C489.537 324.288 488.939 319.091 487.685 314.035L487.684 314.034ZM445.919 231.875L445.938 231.849L445.919 231.901V231.875ZM437.84 304.701L437.527 303.995C437.54 303.486 437.54 302.976 437.527 302.453C437.527 302.309 437.501 302.165 437.501 302.021C437.618 302.923 437.723 303.826 437.853 304.727L437.84 304.701Z" fill="#2F2E41" />
      <path d="M162.915 228.734V179.716C162.915 172.192 159.926 164.976 154.606 159.656C149.285 154.336 142.069 151.347 134.545 151.347H30.6951C23.1709 151.347 15.9549 154.336 10.6345 159.656C5.31415 164.976 2.3252 172.192 2.3252 179.716V448.63C2.3252 456.154 5.31416 463.37 10.6345 468.69C15.9549 474.011 23.1709 477 30.6951 477H134.545C138.271 477 141.96 476.266 145.402 474.84C148.844 473.415 151.971 471.325 154.606 468.69C157.24 466.056 159.33 462.929 160.756 459.487C162.181 456.045 162.915 452.355 162.915 448.63V263.625C163.39 263.625 163.845 263.437 164.18 263.101C164.516 262.766 164.704 262.311 164.704 261.836V230.523C164.704 230.049 164.516 229.594 164.18 229.258C163.845 228.922 163.39 228.734 162.915 228.734V228.734Z" fill="#E6E6E6" />
      <path d="M156.876 179.911V448.436C156.877 454.014 154.677 459.366 150.753 463.331C146.83 467.296 141.501 469.552 135.924 469.611C135.847 469.619 135.769 469.622 135.692 469.62H31.3364C25.7182 469.62 20.3303 467.388 16.3576 463.415C12.3849 459.442 10.1529 454.054 10.1523 448.436V179.911C10.1529 174.293 12.3849 168.905 16.3576 164.932C20.3303 160.96 25.7182 158.728 31.3364 158.727H44.0005C43.3779 160.256 43.1407 161.914 43.3096 163.556C43.4785 165.199 44.0484 166.774 44.9691 168.144C45.8898 169.514 47.1332 170.637 48.5898 171.414C50.0464 172.191 51.6715 172.597 53.3223 172.599H112.817C114.467 172.594 116.09 172.185 117.544 171.407C118.998 170.629 120.24 169.506 121.159 168.137C122.078 166.767 122.647 165.193 122.817 163.553C122.986 161.912 122.75 160.255 122.13 158.727H135.692C141.31 158.728 146.698 160.96 150.671 164.932C154.644 168.905 156.876 174.293 156.876 179.911Z" fill="white" />
      <path d="M136.185 461.332C136.185 464.114 136.098 466.874 135.924 469.611C135.847 469.619 135.769 469.622 135.692 469.62H31.3364C25.7182 469.62 20.3303 467.388 16.3576 463.415C12.3849 459.442 10.1529 454.054 10.1523 448.436V328.77C44.1532 330.484 76.1949 345.199 99.6523 369.872C123.11 394.545 136.189 427.288 136.185 461.332V461.332Z" fill="#F2F2F2" />
      <path d="M2.89837 256.156C2.25811 256.155 1.64429 255.901 1.19156 255.448C0.738826 254.995 0.484153 254.381 0.483398 253.741V237.319C0.483398 236.679 0.737837 236.065 1.19073 235.612C1.64363 235.159 2.25788 234.904 2.89837 234.904C3.53886 234.904 4.15311 235.159 4.606 235.612C5.05889 236.065 5.31333 236.679 5.31333 237.319V253.741C5.31258 254.381 5.05791 254.995 4.60517 255.448C4.15244 255.901 3.53862 256.155 2.89837 256.156Z" fill="#E6E6E6" />
      <path d="M96.3277 243.044H70.7012C68.3863 243.044 66.5098 244.921 66.5098 247.236V253.768C66.5098 256.083 68.3863 257.96 70.7012 257.96H96.3277C98.6425 257.96 100.519 256.083 100.519 253.768V247.236C100.519 244.921 98.6425 243.044 96.3277 243.044Z" fill="#2563EB" />
      <path d="M131.752 272.875H35.2773C32.9625 272.875 31.0859 274.751 31.0859 277.066V283.599C31.0859 285.914 32.9625 287.79 35.2773 287.79H131.752C134.067 287.79 135.943 285.914 135.943 283.599V277.066C135.943 274.751 134.067 272.875 131.752 272.875Z" fill="#E6E6E6" />
      <path d="M131.752 302.705H35.2773C32.9625 302.705 31.0859 304.582 31.0859 306.897V313.429C31.0859 315.744 32.9625 317.621 35.2773 317.621H131.752C134.067 317.621 135.943 315.744 135.943 313.429V306.897C135.943 304.582 134.067 302.705 131.752 302.705Z" fill="#E6E6E6" />
      <path d="M108.539 454.339C108.097 454.36 107.66 454.244 107.287 454.007C106.914 453.771 106.622 453.425 106.451 453.018C106.281 452.61 106.24 452.16 106.334 451.728C106.428 451.296 106.652 450.904 106.977 450.604L107.124 450.016C107.105 449.969 107.085 449.922 107.066 449.875C106.621 448.825 105.876 447.929 104.924 447.301C103.972 446.673 102.855 446.34 101.714 446.344C100.573 446.348 99.4594 446.69 98.512 447.325C97.5645 447.96 96.826 448.861 96.3891 449.915C94.6428 454.121 92.4196 458.334 91.8722 462.781C91.6311 464.746 91.7328 466.739 92.1728 468.67C88.0713 459.723 85.9416 449.999 85.9279 440.157C85.927 437.687 86.0642 435.219 86.3389 432.765C86.5659 430.753 86.8808 428.755 87.2836 426.772C89.4819 416.009 94.2017 405.922 101.055 397.339C104.373 395.529 107.055 392.745 108.742 389.364C109.353 388.148 109.785 386.851 110.024 385.511C109.65 385.56 109.269 385.591 108.895 385.616C108.779 385.622 108.656 385.628 108.539 385.634L108.495 385.636C108.084 385.654 107.676 385.554 107.321 385.346C106.966 385.138 106.678 384.832 106.493 384.464C106.308 384.096 106.232 383.683 106.277 383.274C106.321 382.864 106.482 382.477 106.742 382.157C106.903 381.958 107.065 381.759 107.227 381.561C107.472 381.254 107.724 380.953 107.969 380.647C107.997 380.618 108.024 380.587 108.049 380.555C108.331 380.205 108.613 379.861 108.895 379.512C108.38 378.712 107.687 378.043 106.871 377.555C104.043 375.899 100.141 377.046 98.0986 379.604C96.0497 382.162 95.6633 385.751 96.3748 388.947C97.0746 391.666 98.2321 394.247 99.7979 396.578C99.6445 396.774 99.485 396.964 99.3316 397.161C96.5281 400.765 94.0847 404.636 92.0364 408.718C92.5345 404.145 91.94 399.52 90.3017 395.222C88.6413 391.217 85.5292 387.843 82.7886 384.381C82.0637 383.45 81.0794 382.756 79.96 382.385C78.8405 382.014 77.6363 381.984 76.4994 382.297C75.3625 382.61 74.3441 383.254 73.5729 384.146C72.8016 385.038 72.3122 386.139 72.1664 387.309C72.1608 387.36 72.1553 387.411 72.15 387.462C72.557 387.692 72.9555 387.935 73.3454 388.193C73.8352 388.521 74.2147 388.988 74.4342 389.535C74.6537 390.081 74.703 390.682 74.5756 391.257C74.4482 391.832 74.15 392.355 73.7202 392.758C73.2903 393.16 72.7488 393.424 72.1666 393.514L72.107 393.523C72.252 394.99 72.5084 396.444 72.8738 397.872C73.9327 401.859 75.8039 405.585 78.3701 408.815C80.9363 412.045 84.1421 414.71 87.7866 416.644C88.0258 416.766 88.259 416.889 88.4982 417.006C86.4403 422.838 85.1494 428.913 84.6581 435.078C84.3799 438.715 84.3963 442.368 84.7072 446.003L84.6887 445.874C83.9035 441.833 81.7475 438.186 78.585 435.55C73.8878 431.691 67.2515 430.27 62.1841 427.169C61.6455 426.823 61.0193 426.639 60.3793 426.637C59.7394 426.635 59.1123 426.817 58.572 427.16C58.0318 427.503 57.601 427.994 57.3304 428.574C57.0597 429.154 56.9606 429.799 57.0447 430.433L57.0654 430.569C57.8208 430.876 58.5563 431.231 59.2676 431.63C59.6747 431.86 60.0732 432.103 60.4631 432.361C60.9529 432.688 61.3324 433.156 61.5519 433.703C61.7714 434.249 61.8207 434.849 61.6933 435.425C61.5659 436 61.2677 436.523 60.8378 436.926C60.408 437.328 59.8665 437.592 59.2843 437.682L59.2247 437.691C59.1818 437.697 59.1449 437.703 59.102 437.709C60.3927 440.791 62.2043 443.628 64.4573 446.095C67.2406 449.082 70.6046 451.468 74.343 453.108C78.0814 454.749 82.1154 455.608 86.1978 455.634H86.2039C87.3121 460.45 88.9177 465.137 90.9949 469.621H108.11C108.171 469.43 108.227 469.234 108.282 469.044C106.698 469.143 105.107 469.049 103.546 468.762C104.816 467.204 106.086 465.633 107.355 464.075C107.384 464.046 107.41 464.015 107.435 463.983C108.079 463.186 108.73 462.394 109.374 461.597L109.374 461.596C109.408 459.151 109.128 456.713 108.539 454.34L108.539 454.339ZM88.9399 415.785L88.9489 415.773L88.9399 415.797V415.785ZM85.1488 449.96L85.0016 449.628C85.0077 449.389 85.0077 449.15 85.0016 448.905C85.0016 448.837 84.9893 448.77 84.9893 448.702C85.0445 449.125 85.0936 449.549 85.1549 449.972L85.1488 449.96Z" fill="#CCCCCC" />
      <path d="M2.41497 224.278C1.77471 224.278 1.16089 224.023 0.708159 223.57C0.255428 223.118 0.00075417 222.504 0 221.863V205.442C0 204.801 0.254439 204.187 0.707333 203.734C1.16023 203.281 1.77448 203.027 2.41497 203.027C3.05546 203.027 3.66971 203.281 4.1226 203.734C4.5755 204.187 4.82994 204.801 4.82994 205.442V221.863C4.82918 222.504 4.57451 223.118 4.12178 223.57C3.66905 224.023 3.05523 224.278 2.41497 224.278V224.278Z" fill="#E6E6E6" />
      <path d="M66.6523 161.489C66.6531 160.849 66.9078 160.235 67.3605 159.782C67.8132 159.33 68.4271 159.075 69.0673 159.074H85.4891C86.1296 159.074 86.7438 159.329 87.1967 159.782C87.6496 160.235 87.9041 160.849 87.9041 161.489C87.9041 162.13 87.6496 162.744 87.1967 163.197C86.7438 163.65 86.1296 163.904 85.4891 163.904H69.0673C68.4271 163.904 67.8132 163.649 67.3605 163.196C66.9078 162.743 66.6531 162.13 66.6523 161.489Z" fill="white" />
      <path d="M2.89837 284.17C2.25811 284.169 1.64429 283.914 1.19156 283.462C0.738826 283.009 0.484153 282.395 0.483398 281.755V265.333C0.483398 264.692 0.737837 264.078 1.19073 263.625C1.64363 263.172 2.25788 262.918 2.89837 262.918C3.53886 262.918 4.15311 263.172 4.606 263.625C5.05889 264.078 5.31333 264.692 5.31333 265.333V281.755C5.31258 282.395 5.05791 283.009 4.60517 283.462C4.15244 283.914 3.53862 284.169 2.89837 284.17V284.17Z" fill="#E6E6E6" />
      <path d="M94.6679 163.904C96.0016 163.904 97.0829 162.823 97.0829 161.489C97.0829 160.156 96.0016 159.074 94.6679 159.074C93.3341 159.074 92.2529 160.156 92.2529 161.489C92.2529 162.823 93.3341 163.904 94.6679 163.904Z" fill="white" />
      <path opacity="0.2" d="M220.748 263.858L218.108 280.336L235.98 287.708L220.748 263.858Z" fill="black" />
      <path opacity="0.2" d="M209.433 295.543C214.09 300.935 220.406 304.627 227.39 306.039C234.373 307.45 241.628 306.501 248.014 303.341L251.822 301.456L209.433 295.543Z" fill="black" />
    </g>
  </g>
  <defs>
    <filter id="filter0_d_244_572" x="-4" y="5" width="721.381" height="480" filterUnits="userSpaceOnUse" color-interpolation-filters="sRGB">
      <feFlood flood-opacity="0" result="BackgroundImageFix" />
      <feColorMatrix in="SourceAlpha" type="matrix" values="0 0 0 0 0 0 0 0 0 0 0 0 0 0 0 0 0 0 127 0" result="hardAlpha" />
      <feOffset dy="4" />
      <feGaussianBlur stdDeviation="2" />
      <feComposite in2="hardAlpha" operator="out" />
      <feColorMatrix type="matrix" values="0 0 0 0 0 0 0 0 0 0 0 0 0 0 0 0 0 0 0.25 0" />
      <feBlend mode="normal" in2="BackgroundImageFix" result="effect1_dropShadow_244_572" />
      <feBlend mode="normal" in="SourceGraphic" in2="effect1_dropShadow_244_572" result="shape" />
    </filter>
    <clipPath id="clip0_244_572">
      <rect width="714" height="483" fill="white" />
    </clipPath>
  </defs>
</svg>
