
<svg width="414" height="383" viewBox="0 0 414 383" fill="none" xmlns="http://www.w3.org/2000/svg">
<g filter="url(#filter0_d_238_42)">
<path d="M350.959 326.481H7.98634C6.92953 326.48 5.91638 326.059 5.1691 325.312C4.42181 324.565 4.00138 323.552 4 322.495V3.98633C4.00139 2.92951 4.42183 1.91638 5.16911 1.1691C5.9164 0.421818 6.92953 0.0013838 7.98634 0H350.959C352.016 0.0013838 353.029 0.421818 353.776 1.1691C354.523 1.91638 354.944 2.92951 354.945 3.98633V322.494C354.944 323.551 354.524 324.564 353.776 325.312C353.029 326.059 352.016 326.479 350.959 326.481V326.481Z" fill="#F1F1F1"/>
<path d="M405.023 374.111H62.0508C60.994 374.11 59.9808 373.689 59.2336 372.942C58.4863 372.195 58.0658 371.182 58.0645 370.125V51.6162C58.0658 50.5594 58.4863 49.5463 59.2336 48.799C59.9808 48.0517 60.994 47.6313 62.0508 47.6299H405.023C406.08 47.6313 407.093 48.0517 407.84 48.799C408.588 49.5463 409.008 50.5594 409.01 51.6162V370.124C409.008 371.181 408.588 372.194 407.841 372.942C407.093 373.689 406.08 374.109 405.023 374.11V374.111Z" fill="white"/>
<path d="M405.023 374.111H62.0508C60.994 374.11 59.9808 373.689 59.2336 372.942C58.4863 372.195 58.0658 371.182 58.0645 370.125V51.6162C58.0658 50.5594 58.4863 49.5463 59.2336 48.799C59.9808 48.0517 60.994 47.6313 62.0508 47.6299H405.023C406.08 47.6313 407.093 48.0517 407.84 48.799C408.588 49.5463 409.008 50.5594 409.01 51.6162V370.124C409.008 371.181 408.588 372.194 407.841 372.942C407.093 373.689 406.08 374.109 405.023 374.11V374.111ZM62.0508 49.2213C61.4174 49.2227 60.8104 49.4749 60.3625 49.9227C59.9147 50.3706 59.6624 50.9776 59.6611 51.611V370.124C59.6624 370.757 59.9147 371.364 60.3625 371.812C60.8104 372.26 61.4174 372.512 62.0508 372.514H405.023C405.657 372.513 406.264 372.26 406.712 371.813C407.16 371.365 407.412 370.758 407.413 370.124V51.6162C407.412 50.9828 407.159 50.3758 406.711 49.9279C406.264 49.4801 405.657 49.2279 405.023 49.2265L62.0508 49.2213Z" fill="#E6E6E6"/>
<path d="M341.174 190.415H125.9C124.844 190.414 123.83 189.994 123.083 189.246C122.336 188.499 121.915 187.486 121.914 186.429V91.9557C121.915 90.8988 122.336 89.8856 123.083 89.1382C123.83 88.3909 124.844 87.9705 125.9 87.9694H341.174C342.231 87.9705 343.244 88.3909 343.991 89.1382C344.739 89.8856 345.159 90.8988 345.16 91.9557V186.429C345.159 187.486 344.739 188.499 343.991 189.246C343.244 189.994 342.231 190.414 341.174 190.415Z" fill="#2563EB"/>
<path d="M159.286 128.366C158.569 128.368 157.882 128.653 157.376 129.161C156.869 129.668 156.585 130.356 156.585 131.073C156.585 131.789 156.869 132.477 157.376 132.984C157.882 133.492 158.569 133.777 159.286 133.779H307.788C308.505 133.777 309.192 133.492 309.699 132.984C310.205 132.477 310.489 131.789 310.489 131.073C310.489 130.356 310.205 129.668 309.699 129.161C309.192 128.653 308.505 128.368 307.788 128.366H159.286Z" fill="white"/>
<path d="M159.286 144.606C158.569 144.607 157.882 144.893 157.376 145.4C156.869 145.908 156.585 146.595 156.585 147.312C156.585 148.029 156.869 148.717 157.376 149.224C157.882 149.731 158.569 150.017 159.286 150.018H235.099C235.816 150.017 236.503 149.731 237.01 149.224C237.516 148.717 237.801 148.029 237.801 147.312C237.801 146.595 237.516 145.908 237.01 145.4C236.503 144.893 235.816 144.607 235.099 144.606H159.286Z" fill="white"/>
<path d="M94.3159 225.237C93.599 225.238 92.912 225.524 92.4056 226.031C91.8992 226.539 91.6147 227.226 91.6147 227.943C91.6147 228.66 91.8992 229.348 92.4056 229.855C92.912 230.362 93.599 230.648 94.3159 230.649H372.758C373.475 230.648 374.162 230.362 374.668 229.855C375.175 229.348 375.459 228.66 375.459 227.943C375.459 227.226 375.175 226.539 374.668 226.031C374.162 225.524 373.475 225.238 372.758 225.237H94.3159Z" fill="#E6E6E6"/>
<path d="M94.3159 241.476C93.599 241.478 92.912 241.763 92.4056 242.271C91.8992 242.778 91.6147 243.466 91.6147 244.183C91.6147 244.9 91.8992 245.587 92.4056 246.094C92.912 246.602 93.599 246.888 94.3159 246.889H300.069C300.786 246.888 301.473 246.602 301.98 246.094C302.486 245.587 302.771 244.9 302.771 244.183C302.771 243.466 302.486 242.778 301.98 242.271C301.473 241.763 300.786 241.478 300.069 241.476H94.3159Z" fill="#E6E6E6"/>
<path d="M94.3159 257.348C93.599 257.35 92.912 257.636 92.4056 258.143C91.8992 258.65 91.6147 259.338 91.6147 260.055C91.6147 260.772 91.8992 261.459 92.4056 261.967C92.912 262.474 93.599 262.76 94.3159 262.761H372.758C373.475 262.76 374.162 262.474 374.668 261.967C375.175 261.459 375.459 260.772 375.459 260.055C375.459 259.338 375.175 258.65 374.668 258.143C374.162 257.636 373.475 257.35 372.758 257.348H94.3159Z" fill="#E6E6E6"/>
<path d="M94.3159 273.588C93.599 273.589 92.912 273.875 92.4056 274.383C91.8992 274.89 91.6147 275.578 91.6147 276.294C91.6147 277.011 91.8992 277.699 92.4056 278.206C92.912 278.714 93.599 278.999 94.3159 279.001H300.069C300.786 278.999 301.473 278.714 301.98 278.206C302.486 277.699 302.771 277.011 302.771 276.294C302.771 275.578 302.486 274.89 301.98 274.383C301.473 273.875 300.786 273.589 300.069 273.588H94.3159Z" fill="#E6E6E6"/>
<path d="M371.036 336.772H289.437C288.38 336.771 287.367 336.35 286.62 335.603C285.872 334.856 285.452 333.842 285.451 332.785V319.712C285.452 318.655 285.872 317.641 286.62 316.894C287.367 316.147 288.38 315.726 289.437 315.725H371.036C372.093 315.726 373.107 316.147 373.854 316.894C374.601 317.641 375.022 318.655 375.023 319.712V332.785C375.022 333.842 374.601 334.856 373.854 335.603C373.107 336.35 372.093 336.771 371.036 336.772V336.772Z" fill="#2563EB"/>
</g>
<defs>
<filter id="filter0_d_238_42" x="0" y="0" width="413.01" height="382.111" filterUnits="userSpaceOnUse" color-interpolation-filters="sRGB">
<feFlood flood-opacity="0" result="BackgroundImageFix"/>
<feColorMatrix in="SourceAlpha" type="matrix" values="0 0 0 0 0 0 0 0 0 0 0 0 0 0 0 0 0 0 127 0" result="hardAlpha"/>
<feOffset dy="4"/>
<feGaussianBlur stdDeviation="2"/>
<feComposite in2="hardAlpha" operator="out"/>
<feColorMatrix type="matrix" values="0 0 0 0 0 0 0 0 0 0 0 0 0 0 0 0 0 0 0.25 0"/>
<feBlend mode="normal" in2="BackgroundImageFix" result="effect1_dropShadow_238_42"/>
<feBlend mode="normal" in="SourceGraphic" in2="effect1_dropShadow_238_42" result="shape"/>
</filter>
</defs>
</svg>
